<mxfile host="app.diagrams.net" modified="2020-10-22T05:37:39.213Z" agent="5.0 (Macintosh; Intel Mac OS X 10_15_1) AppleWebKit/537.36 (KHTML, like Gecko) Chrome/86.0.4240.75 Safari/537.36" etag="RkZ9MoN1CT2wf1qnvQB2" version="13.8.1" type="github">
  <diagram name="Page-1" id="c7558073-3199-34d8-9f00-42111426c3f3">
    <mxGraphModel dx="786" dy="445" grid="1" gridSize="10" guides="1" tooltips="1" connect="1" arrows="1" fold="1" page="1" pageScale="1" pageWidth="826" pageHeight="1169" background="#ffffff" math="0" shadow="0">
      <root>
        <mxCell id="0" />
        <mxCell id="1" parent="0" />
        <mxCell id="N5eNtexuv8DRaTq3Zq_8-96" value="" style="whiteSpace=wrap;html=1;aspect=fixed;rounded=1;sketch=1;" parent="1" vertex="1">
          <mxGeometry x="40" y="100" width="70" height="70" as="geometry" />
        </mxCell>
        <mxCell id="EQIL_9ez8UskjMnOPsOI-1" value="" style="ellipse;whiteSpace=wrap;html=1;rounded=1;sketch=1;" vertex="1" parent="1">
          <mxGeometry x="200" y="95" width="120" height="80" as="geometry" />
        </mxCell>
        <mxCell id="EQIL_9ez8UskjMnOPsOI-2" value="Text" style="text;html=1;strokeColor=none;fillColor=none;align=center;verticalAlign=middle;whiteSpace=wrap;rounded=0;sketch=1;" vertex="1" parent="1">
          <mxGeometry x="55" y="200" width="40" height="20" as="geometry" />
        </mxCell>
        <mxCell id="EQIL_9ez8UskjMnOPsOI-3" value="&lt;h1&gt;Heading&lt;/h1&gt;&lt;p&gt;Lorem ipsum dolor sit amet, consectetur adipisicing elit, sed do eiusmod tempor incididunt ut labore et dolore magna aliqua.&lt;/p&gt;" style="text;html=1;strokeColor=none;fillColor=none;spacing=5;spacingTop=-20;whiteSpace=wrap;overflow=hidden;rounded=0;sketch=1;" vertex="1" parent="1">
          <mxGeometry x="180" y="190" width="190" height="120" as="geometry" />
        </mxCell>
        <mxCell id="EQIL_9ez8UskjMnOPsOI-4" value="" style="ellipse;whiteSpace=wrap;html=1;rounded=1;sketch=1;" vertex="1" parent="1">
          <mxGeometry x="340" y="90" width="120" height="80" as="geometry" />
        </mxCell>
        <mxCell id="EQIL_9ez8UskjMnOPsOI-5" value="" style="shape=cylinder3;whiteSpace=wrap;html=1;boundedLbl=1;backgroundOutline=1;size=15;rounded=1;sketch=1;" vertex="1" parent="1">
          <mxGeometry x="540" y="100" width="60" height="80" as="geometry" />
        </mxCell>
      </root>
    </mxGraphModel>
  </diagram>
</mxfile>
